# xmcd
#
# Track frame offsets: 
#        150
#        26017
#        36524
#        56851
#        81304
#        96153
#        113633
#        126150
#        143507
#        156873
#        192520
#
# Disc length: 3179 seconds
#
# Revision: 1
# Processed by: cddbd v1.5.2PL0 Copyright (c) Steve Scherf et al.
# Submitted via: ExactAudioCopy v1.1
#
DISCID=990c690b
DTITLE=Van Morrison - 2003-11-14 Berlin,Tempodrom "Living in the Prese
DTITLE=nt Time"
DYEAR=2003
DGENRE=Blues
TTITLE0=Inarticulate Speech Intro
TTITLE1=I Will Be There
TTITLE2=All Work And No Play
TTITLE3=What's Wrong With This Picture
TTITLE4=Old Side Of The Moon
TTITLE5=Whatever Happened To P.J. Proby
TTITLE6=All Saints Day
TTITLE7=Sometimes We cry
TTITLE8=Walking My Baby Back Home
TTITLE9=Little Village
TTITLE10=Early In The Morning
EXTD=
EXTT0=
EXTT1=
EXTT2=
EXTT3=
EXTT4=
EXTT5=
EXTT6=
EXTT7=
EXTT8=
EXTT9=
EXTT10=
PLAYORDER=
